<?xml version="1.0" encoding="utf-8"?>
<!-- Generator: Adobe Illustrator 23.0.1, SVG Export Plug-In . SVG Version: 6.00 Build 0)  -->
<svg version="1.1" id="Layer_1" xmlns="http://www.w3.org/2000/svg" xmlns:xlink="http://www.w3.org/1999/xlink" x="0px" y="0px"
	 viewBox="0 0 612 792" style="enable-background:new 0 0 612 792;" xml:space="preserve">
<g>
	<path d="M250.1,313.5h-19.5v18.2h21.8v5.5H224v-50.4h27.3v5.5h-20.7v15.9h19.5V313.5z"/>
	<path d="M256.1,310.7c0-3.8-0.1-6.8-0.3-9.8h5.8l0.4,5.9h0.1c1.8-3.4,6-6.7,12-6.7c5,0,12.8,3,12.8,15.4v21.6h-6.6v-20.9
		c0-5.8-2.2-10.8-8.4-10.8c-4.3,0-7.6,3.1-8.8,6.7c-0.3,0.8-0.4,2-0.4,3.1V337h-6.6V310.7z"/>
	<path d="M298.4,320.2c0.1,8.8,5.8,12.5,12.3,12.5c4.7,0,7.6-0.8,10-1.9l1.2,4.7c-2.3,1-6.4,2.3-12.1,2.3
		c-11.1,0-17.8-7.4-17.8-18.2c0-10.9,6.5-19.5,17-19.5c11.8,0,14.9,10.4,14.9,17c0,1.3-0.1,2.3-0.2,3.1H298.4z M317.6,315.5
		c0.1-4.2-1.7-10.7-9-10.7c-6.7,0-9.6,6.1-10.1,10.7H317.6z"/>
	<path d="M330.6,312.2c0-4.3-0.1-7.9-0.3-11.3h5.8l0.3,7.1h0.2c1.6-4.9,5.7-7.9,10.1-7.9c0.7,0,1.2,0.1,1.8,0.1v6.2
		c-0.7-0.1-1.3-0.1-2.2-0.1c-4.6,0-7.9,3.5-8.8,8.4c-0.1,1-0.2,2-0.2,3.1v19.4h-6.6L330.6,312.2L330.6,312.2z"/>
	<path d="M382.4,331.8c0,8.4-1.7,13.4-5.2,16.6c-3.6,3.2-8.7,4.3-13.2,4.3c-4.3,0-9.1-1-12-3l1.6-5.1c2.4,1.6,6.1,2.9,10.6,2.9
		c6.7,0,11.7-3.5,11.7-12.7v-4h-0.1c-1.9,3.4-5.9,6.1-11.5,6.1c-9,0-15.4-7.6-15.4-17.7c0-12.3,8-19.1,16.4-19.1
		c6.3,0,9.6,3.2,11.3,6.3h0.1l0.2-5.5h5.8c-0.2,2.5-0.3,5.5-0.3,9.9V331.8z M375.8,315.1c0-1-0.1-2-0.4-2.9c-1.2-3.9-4.3-7-9.2-7
		c-6.3,0-10.8,5.3-10.8,13.7c0,7,3.7,13,10.7,13c4.1,0,7.8-2.5,9.1-6.8c0.4-1,0.5-2.3,0.5-3.5L375.8,315.1L375.8,315.1z"/>
	<path d="M394.1,300.9l7.9,21.4c0.9,2.4,1.8,5.2,2.4,7.4h0.1c0.7-2.2,1.4-4.9,2.3-7.5L414,301h6.9l-9.9,25.8
		c-4.7,12.4-7.9,18.7-12.4,22.6c-3.3,2.8-6.4,3.9-8.1,4.2l-1.6-5.5c1.6-0.5,3.8-1.6,5.8-3.2c1.8-1.4,4-4,5.5-7.3
		c0.3-0.7,0.5-1.2,0.5-1.6s-0.1-0.9-0.5-1.7L387,300.9H394.1z"/>
	<path d="M165.5,395.3l-3.5,12.9h-11.8l15.4-50.4h14.9l15.7,50.4h-12.3l-3.9-12.9H165.5z M178.2,386.8l-3.1-10.7
		c-0.8-3-1.7-6.8-2.5-9.7h-0.2c-0.7,3-1.5,6.8-2.2,9.7l-3.1,10.7H178.2z"/>
	<path d="M233.9,355.1v42.2c0,4.1,0.1,8.4,0.3,10.9h-10.1l-0.5-5.3h-0.2c-2.2,4-6.7,6.1-11.4,6.1c-8.7,0-15.6-7.4-15.6-18.8
		c-0.1-12.3,7.6-19.4,16.4-19.4c4.6,0,8,1.6,9.6,4.1h0.1V355L233.9,355.1L233.9,355.1z M222.5,387.2c0-0.7,0-1.4-0.1-2.1
		c-0.7-3.1-3.1-5.5-6.7-5.5c-5.2,0-7.8,4.6-7.8,10.4c0,6.1,3.1,10,7.8,10c3.3,0,6-2.2,6.7-5.5c0.1-0.7,0.2-1.6,0.2-2.5L222.5,387.2
		L222.5,387.2z"/>
	<path d="M248.4,371.7l4.9,17c0.9,3.1,1.5,6,2.1,8.9h0.2c0.6-3,1.2-5.8,2-8.9l4.7-17h12l-13.5,36.5h-11.4l-13.3-36.5H248.4z"/>
	<path d="M283.7,367.2c-3.6,0-5.9-2.5-5.9-5.7s2.4-5.7,6.1-5.7s5.9,2.5,6,5.7C289.9,364.7,287.5,367.2,283.7,367.2L283.7,367.2z
		 M278.1,408.2v-36.5h11.4v36.5H278.1z"/>
	<path d="M295.5,398.3c2.1,1.3,6.4,2.7,9.8,2.7s4.9-1.1,4.9-3s-1.1-2.8-5.3-4.2c-7.6-2.5-10.5-6.7-10.5-10.9c0-6.9,5.8-12,14.9-12
		c4.3,0,8,1,10.2,2.2l-1.9,7.8c-1.6-0.8-4.9-2-7.9-2c-2.8,0-4.3,1.1-4.3,2.9c0,1.7,1.4,2.7,5.9,4.2c7,2.4,9.8,5.9,9.9,11.2
		c0,6.9-5.3,11.9-15.8,11.9c-4.8,0-9-1.1-11.8-2.6L295.5,398.3z"/>
	<path d="M341.9,409.1c-10.7,0-18.9-7-18.9-18.8s7.8-19.4,19.6-19.4c11.1,0,18.6,7.7,18.6,18.8C361.2,402.9,351.7,409.1,341.9,409.1
		L341.9,409.1z M342.2,400.9c4.5,0,7.2-4.4,7.2-11c0-5.4-2.1-10.9-7.2-10.9c-5.4,0-7.5,5.5-7.5,11
		C334.7,396.2,337.3,400.9,342.2,400.9L342.2,400.9z"/>
	<path d="M365.2,383.7c0-5.4-0.1-8.9-0.3-12h9.7l0.4,6.8h0.3c1.9-5.4,6.3-7.6,9.9-7.6c1,0,1.6,0.1,2.4,0.2v10.7
		c-0.9-0.1-1.8-0.3-3.1-0.3c-4.2,0-7,2.2-7.8,5.8c-0.1,0.8-0.2,1.6-0.2,2.5v18.4h-11.4v-24.5H365.2z"/>
	<path d="M392,398.3c2.1,1.3,6.4,2.7,9.8,2.7s4.9-1.1,4.9-3s-1.1-2.8-5.3-4.2c-7.6-2.5-10.5-6.7-10.5-10.9c0-6.9,5.8-12,14.9-12
		c4.3,0,8,1,10.2,2.2l-1.9,7.8c-1.6-0.8-4.9-2-7.9-2c-2.8,0-4.3,1.1-4.3,2.9c0,1.7,1.4,2.7,5.9,4.2c7,2.4,9.8,5.9,9.9,11.2
		c0,6.9-5.3,11.9-15.8,11.9c-4.8,0-9-1.1-11.8-2.6L392,398.3z"/>
	<path d="M279.3,472.7c-2.9,1.1-8.7,2.8-15.5,2.8c-7.6,0-13.9-1.9-18.8-6.7c-4.3-4.2-7-10.9-7-18.8c0-15,10.4-26,27.3-26
		c5.8,0,10.5,1.3,12.6,2.3l-1.6,5.3c-2.7-1.3-6.1-2.2-11.1-2.2c-12.3,0-20.3,7.6-20.3,20.3c0,12.8,7.6,20.3,19.4,20.3
		c4.3,0,7.2-0.6,8.7-1.3v-15h-10.2v-5.2h16.6v24.2H279.3z"/>
	<path d="M286,450.1c0-4.3-0.1-7.9-0.3-11.3h5.8l0.3,7.1h0.2c1.6-4.9,5.7-7.9,10.1-7.9c0.7,0,1.2,0.1,1.8,0.1v6.2
		c-0.7-0.1-1.3-0.1-2.2-0.1c-4.6,0-7.9,3.5-8.8,8.4c-0.1,1-0.2,2-0.2,3.1V475H286V450.1z"/>
	<path d="M321.4,475.8c-9.7,0-17.3-7.2-17.3-18.6c0-12.1,8-19.2,17.9-19.2c10.4,0,17.4,7.5,17.4,18.5
		C339.4,470,330.1,475.8,321.4,475.8L321.4,475.8z M321.7,470.9c6.3,0,11-5.9,11-14.1c0-6.1-3.1-13.8-10.8-13.8
		c-7.7,0-11.1,7.2-11.1,14C310.8,464.9,315.3,470.9,321.7,470.9L321.7,470.9z"/>
	<path d="M375,465c0,3.8,0.1,7.1,0.3,9.9h-5.8l-0.4-5.9H369c-1.6,2.9-5.5,6.7-12,6.7c-5.7,0-12.5-3.2-12.5-15.8v-21.2h6.6v20
		c0,6.9,2.2,11.6,8.1,11.6c4.4,0,7.5-3.1,8.7-6.1c0.4-0.9,0.6-2.1,0.6-3.4v-22.1h6.6V465H375z"/>
	<path d="M382.9,450.6c0-4.6-0.1-8.4-0.3-11.8h5.9l0.4,6.2h0.1c2.6-4.5,7-7,12.8-7c8.8,0,15.4,7.4,15.4,18.4c0,13-8,19.4-16.4,19.4
		c-4.9,0-9-2.1-11.1-5.7h-0.1v19.7H383L382.9,450.6L382.9,450.6z M389.5,460.2c0,0.9,0.1,1.9,0.3,2.7c1.1,4.6,5.2,7.7,9.8,7.7
		c7,0,11-5.7,11-14c0-7.2-3.7-13.5-10.7-13.5c-4.5,0-8.7,3.1-10,8.1c-0.1,0.8-0.4,1.8-0.4,2.6L389.5,460.2L389.5,460.2z"/>
	<rect x="440.9" y="286.8" width="6.3" height="203.4"/>
</g>
</svg>
