<?xml version="1.0" encoding="utf-8"?>
<!-- Generator: Adobe Illustrator 23.0.1, SVG Export Plug-In . SVG Version: 6.00 Build 0)  -->
<svg version="1.1" id="Layer_1" xmlns="http://www.w3.org/2000/svg" xmlns:xlink="http://www.w3.org/1999/xlink" x="0px" y="0px"
	 viewBox="0 0 952 141.7" style="enable-background:new 0 0 952 141.7;" xml:space="preserve">
<style type="text/css">
	.st0{fill:#939598;}
</style>
<g>
	<g>
		<path class="st0" d="M37.7,42.7H9.5V69H41v7.9H0V4h39.4v7.9H9.5v23h28.2V42.7z"/>
		<path class="st0" d="M48.6,38.7c0-5.5-0.1-9.8-0.4-14.2h8.4l0.5,8.5h0.2c2.6-4.9,8.6-9.7,17.3-9.7c7.2,0,18.5,4.3,18.5,22.3v31.2
			h-9.5V46.7c0-8.4-3.1-15.6-12.1-15.6c-6.2,0-11,4.4-12.7,9.7c-0.4,1.2-0.6,2.9-0.6,4.4v31.5h-9.5v-38H48.6z"/>
		<path class="st0" d="M109.7,52.4c0.2,12.8,8.3,18,17.8,18c6.8,0,11-1.2,14.5-2.7l1.7,6.8c-3.3,1.5-9.2,3.3-17.5,3.3
			c-16,0-25.7-10.7-25.7-26.4c0-15.8,9.4-28.2,24.6-28.2c17.1,0,21.5,15,21.5,24.6c0,1.9-0.1,3.3-0.3,4.4h-36.6V52.4z M137.4,45.6
			c0.1-6.1-2.5-15.5-13.1-15.5c-9.7,0-13.8,8.9-14.6,15.5H137.4z"/>
		<path class="st0" d="M154.1,40.8c0-6.2-0.1-11.5-0.4-16.3h8.3l0.4,10.3h0.3c2.4-7,8.2-11.5,14.6-11.5c1,0,1.7,0.1,2.6,0.2v9
			c-1-0.1-1.9-0.2-3.2-0.2c-6.7,0-11.5,5.1-12.7,12.1c-0.2,1.4-0.3,2.9-0.3,4.4v28h-9.5v-36H154.1z"/>
		<path class="st0" d="M229,69.2c0,12.1-2.5,19.3-7.5,24c-5.2,4.6-12.5,6.3-19.1,6.3c-6.3,0-13.2-1.5-17.4-4.3l2.4-7.3
			c3.5,2.3,8.9,4.2,15.3,4.2c9.7,0,16.9-5.1,16.9-18.4V68h-0.2c-2.8,4.9-8.5,8.8-16.6,8.8c-13,0-22.3-11-22.3-25.6
			c0-17.7,11.6-27.7,23.7-27.7c9.1,0,13.9,4.6,16.3,9.1h0.2l0.3-7.9h8.4c-0.3,3.7-0.4,8-0.4,14.3L229,69.2L229,69.2z M219.5,45.1
			c0-1.5-0.1-2.9-0.5-4.2c-1.7-5.6-6.3-10.2-13.3-10.2c-9.1,0-15.6,7.7-15.6,19.9c0,10.2,5.3,18.8,15.5,18.8
			c5.9,0,11.2-3.7,13.2-9.8c0.5-1.5,0.8-3.3,0.8-5.1L219.5,45.1L219.5,45.1z"/>
		<path class="st0" d="M243.8,24.5l11.3,30.9c1.3,3.5,2.6,7.6,3.5,10.7h0.2c1-3.1,2.1-7.1,3.3-10.9l10.4-30.7h10l-14.3,37.3
			c-6.8,17.9-11.5,27-17.9,32.7c-4.8,4-9.3,5.6-11.7,6.1l-2.4-7.9c2.4-0.8,5.5-2.3,8.3-4.6c2.6-2.1,5.7-5.7,8-10.6
			c0.4-1,0.8-1.7,0.8-2.3c0-0.5-0.2-1.3-0.8-2.5l-19.2-48.2C233.3,24.5,243.8,24.5,243.8,24.5z"/>
		<path d="M315.1,58.1L310,76.8h-17.1L315.2,4h21.5l22.7,72.8h-17.7L336,58.1H315.1z M333.6,45.8L329,30.4c-1.2-4.3-2.5-9.8-3.6-14
			h-0.3c-1,4.3-2.2,9.8-3.2,14l-4.4,15.5h16.1V45.8z"/>
		<path d="M411.8,0v61c0,5.9,0.2,12.2,0.4,15.8h-14.6l-0.6-7.7h-0.3c-3.2,5.8-9.7,8.9-16.5,8.9c-12.5,0-22.6-10.7-22.6-27.1
			c-0.1-17.7,11-28.1,23.7-28.1c6.6,0,11.6,2.4,13.9,5.9h0.2V0H411.8z M395.4,46.5c0-1,0-2.1-0.2-3c-1-4.4-4.5-8-9.6-8
			c-7.6,0-11.3,6.7-11.3,15c0,8.9,4.4,14.5,11.2,14.5c4.8,0,8.6-3.2,9.6-7.9c0.2-1.1,0.3-2.4,0.3-3.7V46.5z"/>
		<path d="M432.9,24l7.1,24.5c1.3,4.4,2.2,8.6,3,12.9h0.3c0.9-4.3,1.7-8.3,2.9-12.9L453,24h17.3l-19.7,52.8h-16.4L415,24H432.9z"/>
		<path d="M483.9,17.5c-5.2,0-8.5-3.7-8.5-8.2c0-4.6,3.5-8.2,8.8-8.2s8.5,3.6,8.6,8.2c0,4.5-3.3,8.2-8.8,8.2H483.9z M475.7,76.8V24
			h16.4v52.8H475.7z"/>
		<path d="M500.9,62.5c3,1.8,9.3,3.9,14.2,3.9c5,0,7-1.6,7-4.3s-1.6-4.1-7.7-6.1c-11-3.7-15.2-9.6-15.1-15.8
			c0-9.9,8.4-17.4,21.5-17.4c6.2,0,11.6,1.5,14.8,3.1l-2.8,11.2c-2.4-1.2-7-2.9-11.5-2.9c-4,0-6.3,1.6-6.3,4.2
			c0,2.5,2.1,3.9,8.5,6.1c10,3.5,14.2,8.5,14.3,16.2c0,9.9-7.7,17.2-22.8,17.2c-6.9,0-13.1-1.6-17.1-3.8L500.9,62.5z"/>
		<path d="M567.9,78c-15.5,0-27.3-10.2-27.3-27.2c0-17.1,11.2-28,28.3-28c16.1,0,26.9,11.1,26.9,27.1c0,19.2-13.7,28.1-27.8,28.1
			H567.9z M568.3,66.2c6.5,0,10.5-6.4,10.5-15.9c0-7.8-3-15.8-10.5-15.8c-7.8,0-10.8,8-10.8,15.9C557.5,59.4,561.3,66.2,568.3,66.2
			L568.3,66.2z"/>
		<path d="M601.6,41.4c0-7.8-0.1-12.9-0.4-17.4h14l0.6,9.8h0.4c2.7-7.8,9.1-11,14.3-11c1.5,0,2.3,0.1,3.5,0.3v15.5
			c-1.3-0.2-2.6-0.4-4.4-0.4c-6.1,0-10.2,3.1-11.2,8.3c-0.2,1.1-0.3,2.3-0.3,3.7v26.7h-16.4L601.6,41.4L601.6,41.4z"/>
		<path d="M640.4,62.5c3,1.8,9.3,3.9,14.2,3.9c5,0,7-1.6,7-4.3S660,58,653.9,56c-11-3.7-15.2-9.6-15.1-15.8
			c0-9.9,8.4-17.4,21.5-17.4c6.2,0,11.6,1.5,14.8,3.1l-2.8,11.2c-2.4-1.2-7-2.9-11.5-2.9c-4,0-6.3,1.6-6.3,4.2
			c0,2.5,2.1,3.9,8.5,6.1c10,3.5,14.2,8.5,14.3,16.2c0,9.9-7.7,17.2-22.8,17.2c-6.9,0-13.1-1.6-17.1-3.8L640.4,62.5z"/>
		<path class="st0" d="M756.7,73.6c-4.2,1.6-12.6,4-22.5,4c-11,0-20.1-2.8-27.2-9.6c-6.3-6.1-10.2-15.8-10.2-27.1
			c0-21.7,15-37.6,39.4-37.6c8.4,0,15.1,1.8,18.3,3.3l-2.4,7.7c-3.9-1.8-8.8-3.1-16.1-3.1c-17.7,0-29.3,11-29.3,29.3
			c0,18.5,11,29.4,28.1,29.4c6.2,0,10.4-0.9,12.5-1.9V46.1h-14.7v-7.6h24v35.1H756.7z"/>
		<path class="st0" d="M766.3,40.8c0-6.2-0.1-11.5-0.4-16.3h8.3l0.4,10.3h0.3c2.4-7,8.2-11.5,14.6-11.5c1,0,1.7,0.1,2.6,0.2v9
			c-1-0.1-1.9-0.2-3.2-0.2c-6.7,0-11.5,5.1-12.8,12.1c-0.2,1.4-0.3,2.9-0.3,4.4v28h-9.5L766.3,40.8L766.3,40.8z"/>
		<path class="st0" d="M817.5,78c-14,0-25.1-10.4-25.1-26.9c0-17.5,11.6-27.8,25.9-27.8c15,0,25.2,10.9,25.2,26.8
			c0,19.4-13.5,27.9-25.9,27.9H817.5z M817.9,70.9c9.1,0,15.9-8.5,15.9-20.4c0-8.9-4.4-20-15.7-20c-11.1,0-16,10.4-16,20.3
			C802.1,62.3,808.6,70.9,817.9,70.9L817.9,70.9z"/>
		<path class="st0" d="M892.8,62.5c0,5.5,0.1,10.3,0.4,14.4h-8.4l-0.5-8.5h-0.2c-2.4,4.2-8,9.7-17.3,9.7c-8.2,0-18-4.6-18-22.9V24.5
			h9.5v28.8c0,9.9,3.1,16.7,11.7,16.7c6.4,0,10.8-4.4,12.5-8.8c0.5-1.3,0.9-3,0.9-4.9v-32h9.5v38.2H892.8z"/>
		<path class="st0" d="M902.1,41.6c0-6.7-0.1-12.1-0.4-17.1h8.5l0.5,9h0.2c3.8-6.5,10-10.2,18.5-10.2c12.7,0,22.3,10.7,22.3,26.6
			c0,18.8-11.6,28.1-23.8,28.1c-7,0-13-3-16.1-8.2h-0.2v28.4h-9.5V41.6z M911.6,55.5c0,1.3,0.1,2.7,0.4,3.9
			c1.6,6.6,7.5,11.1,14.2,11.1c10,0,15.9-8.2,15.9-20.2c0-10.5-5.4-19.4-15.5-19.4c-6.5,0-12.6,4.5-14.5,11.8
			c-0.2,1.2-0.5,2.6-0.5,3.8L911.6,55.5L911.6,55.5z"/>
	</g>
</g>
<g>
	<path d="M449.8,109.5h13.1v2.6H453v8.1h9.1v2.6H453v11h-3.2V109.5z"/>
	<path d="M473.2,134.2c-4.7,0-8.4-3.5-8.4-9c0-5.8,3.9-9.2,8.6-9.2c5,0,8.4,3.6,8.4,8.9C481.9,131.3,477.4,134.2,473.2,134.2
		L473.2,134.2z M473.4,131.8c3,0,5.3-2.8,5.3-6.8c0-3-1.5-6.7-5.2-6.7c-3.7,0-5.3,3.5-5.3,6.8C468.1,128.9,470.3,131.8,473.4,131.8
		L473.4,131.8z"/>
	<path d="M485.9,121.8c0-2.1,0-3.8-0.1-5.4h2.8l0.1,3.4h0.1c0.8-2.3,2.7-3.8,4.9-3.8c0.3,0,0.6,0,0.9,0.1v3c-0.3,0-0.6-0.1-1.1-0.1
		c-2.2,0-3.8,1.7-4.2,4c-0.1,0.5-0.1,1-0.1,1.5v9.3h-3.2V121.8z"/>
	<path d="M497.8,121.1c0-1.8-0.1-3.3-0.1-4.7h2.8l0.1,2.8h0.1c1-1.7,2.6-3.2,5.5-3.2c2.3,0,4.1,1.4,4.9,3.5h0.1c0.5-1,1.3-1.7,2-2.3
		c1-0.8,2.2-1.2,3.8-1.2c2.3,0,5.8,1.5,5.8,7.6v10.3h-3.1v-9.9c0-3.4-1.3-5.4-3.8-5.4c-1.8,0-3.2,1.3-3.8,2.8
		c-0.1,0.5-0.3,1-0.3,1.6v10.8h-3.1v-10.5c0-2.8-1.2-4.8-3.6-4.8c-1.9,0-3.4,1.6-3.9,3.2c-0.2,0.5-0.3,1-0.3,1.5v10.5h-3.1V121.1z"
		/>
	<path d="M529.7,125.6c0.1,4.2,2.8,6,5.9,6c2.3,0,3.7-0.4,4.8-0.9l0.6,2.3c-1.1,0.5-3.1,1.1-5.8,1.1c-5.3,0-8.6-3.6-8.6-8.8
		c0-5.3,3.1-9.4,8.2-9.4c5.7,0,7.2,5,7.2,8.2c0,0.6,0,1.1-0.1,1.5H529.7z M538.9,123.4c0-2-0.8-5.1-4.4-5.1c-3.2,0-4.6,3-4.9,5.1
		H538.9z"/>
	<path d="M545.9,121.8c0-2.1,0-3.8-0.1-5.4h2.8l0.1,3.4h0.1c0.8-2.3,2.7-3.8,4.9-3.8c0.3,0,0.6,0,0.9,0.1v3c-0.3,0-0.6-0.1-1.1-0.1
		c-2.2,0-3.8,1.7-4.2,4c-0.1,0.5-0.1,1-0.1,1.5v9.3h-3.2V121.8z"/>
	<path d="M557.8,108.2h3.2v25.6h-3.2V108.2z"/>
	<path d="M567.5,116.3l3.8,10.3c0.4,1.2,0.9,2.5,1.2,3.6h0.1c0.3-1,0.7-2.4,1.1-3.6l3.5-10.2h3.3l-4.8,12.4c-2.3,6-3.8,9-6,10.9
		c-1.6,1.3-3.1,1.9-3.9,2l-0.8-2.6c0.8-0.3,1.8-0.8,2.8-1.5c0.9-0.7,1.9-1.9,2.7-3.5c0.1-0.3,0.3-0.6,0.3-0.8s-0.1-0.4-0.3-0.8
		l-6.4-16.1H567.5z"/>
	<path d="M591,109.8c1.5-0.3,3.5-0.5,6-0.5c3.1,0,5.4,0.7,6.8,2c1.3,1.2,2.2,2.9,2.2,5c0,2.2-0.6,3.9-1.9,5.2
		c-1.7,1.8-4.4,2.7-7.4,2.7c-0.9,0-1.8,0-2.5-0.2v9.8H591V109.8z M594.1,121.4c0.7,0.2,1.5,0.3,2.6,0.3c3.8,0,6.1-1.8,6.1-5.1
		c0-3.2-2.3-4.8-5.7-4.8c-1.4,0-2.4,0.1-3,0.3V121.4z"/>
	<path d="M610.1,109.5h3.2v21.6h10.4v2.6h-13.5V109.5z"/>
	<path d="M626.7,129.9c1.4,0.9,3.4,1.5,5.6,1.5c3.2,0,5.1-1.7,5.1-4.1c0-2.3-1.3-3.6-4.6-4.8c-4-1.4-6.4-3.5-6.4-6.8
		c0-3.8,3.1-6.6,7.8-6.6c2.4,0,4.3,0.6,5.3,1.2l-0.9,2.6c-0.8-0.5-2.4-1.2-4.6-1.2c-3.3,0-4.6,2-4.6,3.6c0,2.2,1.5,3.3,4.8,4.6
		c4.1,1.6,6.2,3.6,6.2,7.1c0,3.7-2.7,7-8.5,7c-2.3,0-4.9-0.7-6.2-1.6L626.7,129.9z"/>
	<path d="M652.5,109.8c1.9-0.3,4.2-0.5,6.7-0.5c4.5,0,7.7,1,9.8,3c2.2,2,3.5,4.8,3.5,8.7c0,4-1.3,7.2-3.5,9.4
		c-2.3,2.3-6,3.5-10.8,3.5c-2.3,0-4.1-0.1-5.7-0.3V109.8z M655.6,131.3c0.8,0.1,1.9,0.1,3.2,0.1c6.7,0,10.3-3.7,10.3-10.3
		c0-5.7-3.2-9.4-9.8-9.4c-1.6,0-2.8,0.1-3.7,0.3V131.3z"/>
	<path d="M677.9,113.4c-1.2,0-1.9-0.9-1.9-1.9c0-1.1,0.8-2,2-2c1.2,0,1.9,0.9,1.9,2C679.9,112.5,679.2,113.4,677.9,113.4
		L677.9,113.4z M676.4,133.8v-17.4h3.2v17.4H676.4z"/>
	<path d="M686,116.3l3.4,9.8c0.6,1.6,1,3.1,1.4,4.5h0.1c0.4-1.4,0.9-2.9,1.5-4.5l3.4-9.8h3.3l-6.8,17.4h-3l-6.6-17.4H686z"/>
	<path d="M703.6,125.6c0.1,4.2,2.8,6,5.9,6c2.3,0,3.7-0.4,4.8-0.9l0.6,2.3c-1.1,0.5-3.1,1.1-5.8,1.1c-5.3,0-8.6-3.6-8.6-8.8
		c0-5.3,3.1-9.4,8.2-9.4c5.7,0,7.2,5,7.2,8.2c0,0.6,0,1.1-0.1,1.5H703.6z M712.8,123.4c0-2-0.8-5.1-4.4-5.1c-3.2,0-4.6,3-4.9,5.1
		H712.8z"/>
	<path d="M719.4,130.5c1,0.6,2.6,1.2,4.2,1.2c2.3,0,3.3-1.1,3.3-2.6c0-1.5-0.9-2.3-3.2-3.2c-3.2-1.2-4.6-2.9-4.6-4.9
		c0-2.8,2.3-5.1,6-5.1c1.8,0,3.3,0.5,4.2,1.1l-0.8,2.3c-0.7-0.4-1.9-1-3.6-1c-1.9,0-2.9,1.1-2.9,2.4c0,1.4,1,2.1,3.3,3
		c3,1.1,4.6,2.6,4.6,5.2c0,3.1-2.4,5.3-6.5,5.3c-1.9,0-3.7-0.5-4.9-1.2L719.4,130.5z"/>
	<path d="M737.9,112.2v4.2h4.5v2.4h-4.5v9.4c0,2.2,0.6,3.4,2.4,3.4c0.9,0,1.4-0.1,1.8-0.2l0.1,2.4c-0.6,0.2-1.6,0.4-2.8,0.4
		c-1.5,0-2.7-0.5-3.4-1.3c-0.9-1-1.2-2.5-1.2-4.6v-9.5h-2.7v-2.4h2.7v-3.2L737.9,112.2z"/>
	<path d="M746,121.1c0-1.8-0.1-3.3-0.1-4.7h2.8l0.1,2.8h0.1c1-1.7,2.6-3.2,5.5-3.2c2.3,0,4.1,1.4,4.9,3.5h0.1c0.5-1,1.3-1.7,2-2.3
		c1-0.8,2.2-1.2,3.8-1.2c2.3,0,5.8,1.5,5.8,7.6v10.3h-3.1v-9.9c0-3.4-1.3-5.4-3.8-5.4c-1.8,0-3.2,1.3-3.8,2.8
		c-0.1,0.5-0.3,1-0.3,1.6v10.8h-3.1v-10.5c0-2.8-1.2-4.8-3.6-4.8c-1.9,0-3.4,1.6-3.9,3.2c-0.2,0.5-0.3,1-0.3,1.5v10.5H746V121.1z"/>
	<path d="M777.8,125.6c0.1,4.2,2.8,6,5.9,6c2.3,0,3.7-0.4,4.8-0.9l0.6,2.3c-1.1,0.5-3.1,1.1-5.8,1.1c-5.3,0-8.6-3.6-8.6-8.8
		c0-5.3,3.1-9.4,8.2-9.4c5.7,0,7.2,5,7.2,8.2c0,0.6,0,1.1-0.1,1.5H777.8z M787,123.4c0-2-0.8-5.1-4.4-5.1c-3.2,0-4.6,3-4.9,5.1H787z
		"/>
	<path d="M794,121.1c0-1.8,0-3.3-0.1-4.7h2.8l0.2,2.8h0.1c0.9-1.6,2.9-3.2,5.8-3.2c2.4,0,6.2,1.4,6.2,7.4v10.4h-3.2v-10
		c0-2.8-1-5.2-4-5.2c-2.1,0-3.7,1.5-4.2,3.2c-0.1,0.4-0.2,1-0.2,1.5v10.5H794V121.1z"/>
	<path d="M817.7,112.2v4.2h4.5v2.4h-4.5v9.4c0,2.2,0.6,3.4,2.4,3.4c0.9,0,1.4-0.1,1.8-0.2l0.1,2.4c-0.6,0.2-1.6,0.4-2.8,0.4
		c-1.5,0-2.7-0.5-3.4-1.3c-0.9-1-1.2-2.5-1.2-4.6v-9.5h-2.7v-2.4h2.7v-3.2L817.7,112.2z"/>
	<path d="M833.1,129.9c1.4,0.9,3.4,1.5,5.6,1.5c3.2,0,5.1-1.7,5.1-4.1c0-2.3-1.3-3.6-4.6-4.8c-4-1.4-6.4-3.5-6.4-6.8
		c0-3.8,3.1-6.6,7.8-6.6c2.4,0,4.3,0.6,5.3,1.2l-0.9,2.6c-0.8-0.5-2.4-1.2-4.6-1.2c-3.3,0-4.6,2-4.6,3.6c0,2.2,1.5,3.3,4.8,4.6
		c4.1,1.6,6.2,3.6,6.2,7.1c0,3.7-2.7,7-8.5,7c-2.3,0-4.9-0.7-6.2-1.6L833.1,129.9z"/>
	<path d="M853.2,125.6c0.1,4.2,2.8,6,5.9,6c2.3,0,3.7-0.4,4.8-0.9l0.6,2.3c-1.1,0.5-3.1,1.1-5.8,1.1c-5.3,0-8.6-3.6-8.6-8.8
		c0-5.3,3.1-9.4,8.2-9.4c5.7,0,7.2,5,7.2,8.2c0,0.6,0,1.1-0.1,1.5H853.2z M862.4,123.4c0-2-0.8-5.1-4.4-5.1c-3.2,0-4.6,3-4.9,5.1
		H862.4z"/>
	<path d="M869.4,121.8c0-2.1,0-3.8-0.1-5.4h2.8l0.1,3.4h0.1c0.8-2.3,2.7-3.8,4.9-3.8c0.3,0,0.6,0,0.9,0.1v3c-0.3,0-0.6-0.1-1.1-0.1
		c-2.2,0-3.8,1.7-4.2,4c-0.1,0.5-0.1,1-0.1,1.5v9.3h-3.2V121.8z"/>
	<path d="M883.3,116.3l3.4,9.8c0.6,1.6,1,3.1,1.4,4.5h0.1c0.4-1.4,0.9-2.9,1.5-4.5l3.4-9.8h3.3l-6.8,17.4h-3l-6.6-17.4H883.3z"/>
	<path d="M900.9,113.4c-1.2,0-1.9-0.9-1.9-1.9c0-1.1,0.8-2,2-2c1.2,0,1.9,0.9,1.9,2C902.9,112.5,902.2,113.4,900.9,113.4
		L900.9,113.4z M899.4,133.8v-17.4h3.2v17.4H899.4z"/>
	<path d="M920.2,133.1c-0.8,0.4-2.7,1-5,1c-5.3,0-8.7-3.6-8.7-8.9c0-5.4,3.7-9.3,9.4-9.3c1.9,0,3.5,0.5,4.4,0.9l-0.7,2.4
		c-0.8-0.4-1.9-0.8-3.7-0.8c-4,0-6.2,3-6.2,6.6c0,4,2.6,6.5,6,6.5c1.8,0,3-0.4,3.9-0.8L920.2,133.1z"/>
	<path d="M925.5,125.6c0.1,4.2,2.8,6,5.9,6c2.3,0,3.7-0.4,4.8-0.9l0.6,2.3c-1.1,0.5-3.1,1.1-5.8,1.1c-5.3,0-8.6-3.6-8.6-8.8
		c0-5.3,3.1-9.4,8.2-9.4c5.7,0,7.2,5,7.2,8.2c0,0.6,0,1.1-0.1,1.5H925.5z M934.8,123.4c0-2-0.8-5.1-4.4-5.1c-3.2,0-4.6,3-4.9,5.1
		H934.8z"/>
	<path d="M941.3,130.5c1,0.6,2.6,1.2,4.2,1.2c2.3,0,3.3-1.1,3.3-2.6c0-1.5-0.9-2.3-3.2-3.2c-3.2-1.2-4.6-2.9-4.6-4.9
		c0-2.8,2.3-5.1,6-5.1c1.8,0,3.3,0.5,4.2,1.1l-0.8,2.3c-0.7-0.4-1.9-1-3.6-1c-1.9,0-2.9,1.1-2.9,2.4c0,1.4,1,2.1,3.3,3
		c3,1.1,4.6,2.6,4.6,5.2c0,3.1-2.4,5.3-6.5,5.3c-1.9,0-3.7-0.5-4.9-1.2L941.3,130.5z"/>
</g>
</svg>
